# Rhino

mtllib palta 7.mtl
usemtl Yeso (1)
v 2.0181670188903809 0.40000000596046448 -0.93659991025924683
v 2.0181670188903809 0.40000000596046448 -1.0165998935699463
v 2.0981669425964355 0.40000000596046448 -0.93659991025924683
v 2.0981669425964355 0.40000000596046448 -1.0165998935699463
v 2.0581669807434082 0.40000000596046448 -0.93659991025924683
v 2.0981669425964355 0.40000000596046448 -0.97659987211227417
v 2.0581669807434082 0.40000000596046448 -1.0165998935699463
v 2.0181670188903809 0.40000000596046448 -0.97659987211227417
v 2.0981669425964355 0.40000000596046448 -0.93659991025924683
v 2.0981669425964355 0.72879999876022339 -0.93659991025924683
v 2.0181670188903809 0.40000000596046448 -0.93659991025924683
v 2.0181670188903809 0.72879999876022339 -0.93659991025924683
v 2.0581669807434082 0.40000000596046448 -0.93659991025924683
v 2.0181670188903809 0.56440001726150513 -0.93659991025924683
v 2.0981669425964355 0.56440001726150513 -0.93659991025924683
v 2.0581669807434082 0.72879999876022339 -0.93659991025924683
v 2.0981669425964355 0.40000000596046448 -1.0165998935699463
v 2.0981669425964355 0.72879999876022339 -1.0165998935699463
v 2.0981669425964355 0.40000000596046448 -0.93659991025924683
v 2.0981669425964355 0.72879999876022339 -0.93659991025924683
v 2.0981669425964355 0.40000000596046448 -0.97659987211227417
v 2.0981669425964355 0.56440001726150513 -0.93659991025924683
v 2.0981669425964355 0.56440001726150513 -1.0165998935699463
v 2.0981669425964355 0.72879999876022339 -0.97659987211227417
v 2.0181670188903809 0.40000000596046448 -1.0165998935699463
v 2.0181670188903809 0.72879999876022339 -1.0165998935699463
v 2.0981669425964355 0.40000000596046448 -1.0165998935699463
v 2.0981669425964355 0.72879999876022339 -1.0165998935699463
v 2.0581669807434082 0.40000000596046448 -1.0165998935699463
v 2.0981669425964355 0.56440001726150513 -1.0165998935699463
v 2.0181670188903809 0.56440001726150513 -1.0165998935699463
v 2.0581669807434082 0.72879999876022339 -1.0165998935699463
v 2.0181670188903809 0.40000000596046448 -0.93659991025924683
v 2.0181670188903809 0.72879999876022339 -0.93659991025924683
v 2.0181670188903809 0.40000000596046448 -1.0165998935699463
v 2.0181670188903809 0.72879999876022339 -1.0165998935699463
v 2.0181670188903809 0.40000000596046448 -0.97659987211227417
v 2.0181670188903809 0.56440001726150513 -1.0165998935699463
v 2.0181670188903809 0.56440001726150513 -0.93659991025924683
v 2.0181670188903809 0.72879999876022339 -0.97659987211227417
v 2.0181670188903809 0.72879999876022339 -0.93659991025924683
v 2.0181670188903809 0.72879999876022339 -1.0165998935699463
v 2.0981669425964355 0.72879999876022339 -0.93659991025924683
v 2.0981669425964355 0.72879999876022339 -1.0165998935699463
v 2.0581669807434082 0.72879999876022339 -0.93659991025924683
v 2.0981669425964355 0.72879999876022339 -0.97659987211227417
v 2.0581669807434082 0.72879999876022339 -1.0165998935699463
v 2.0181670188903809 0.72879999876022339 -0.97659987211227417
vt 0 0.41100001335144043
vt 0 0.61100000143051147
vt 0.19853515923023224 0.41100001335144043
vt 0.19853515923023224 0.61100000143051147
vt 0.099267579615116119 0.41100001335144043
vt 0.19853515923023224 0.51099997758865356
vt 0.099267579615116119 0.61100000143051147
vt 0 0.51099997758865356
vt 0.40000000596046448 0
vt 0.40000000596046448 0.82053518295288086
vt 0.59853518009185791 0
vt 0.59853518009185791 0.82053518295288086
vt 0.499267578125 0
vt 0.59853518009185791 0.41026759147644043
vt 0.40000000596046448 0.41026759147644043
vt 0.499267578125 0.82053518295288086
vt 0.80000001192092896 0
vt 0.80000001192092896 0.82053518295288086
vt 0.99853515625 0
vt 0.99853515625 0.82053518295288086
vt 0.89926755428314209 0
vt 0.99853515625 0.41026759147644043
vt 0.80000001192092896 0.41026759147644043
vt 0.89926755428314209 0.82053518295288086
vt 0.20000000298023224 0
vt 0.20000000298023224 0.82053518295288086
vt 0.39853516221046448 0
vt 0.39853516221046448 0.82053518295288086
vt 0.29926759004592896 0
vt 0.39853516221046448 0.41026759147644043
vt 0.20000000298023224 0.41026759147644043
vt 0.29926759004592896 0.82053518295288086
vt 0.60000002384185791 0
vt 0.60000002384185791 0.82053518295288086
vt 0.79853516817092896 0
vt 0.79853516817092896 0.82053518295288086
vt 0.69926756620407104 0
vt 0.79853516817092896 0.41026759147644043
vt 0.60000002384185791 0.41026759147644043
vt 0.69926756620407104 0.82053518295288086
vt 0 0
vt 0 0.20000000298023224
vt 0.19853515923023224 0
vt 0.19853515923023224 0.20000000298023224
vt 0.099267579615116119 0
vt 0.19853515923023224 0.10000000149011612
vt 0.099267579615116119 0.20000000298023224
vt 0 0.10000000149011612
vn 0 -1 0
vn 0 -1 0
vn 0 -1 0
vn 0 -1 0
vn 0 -1 0
vn 0 -1 0
vn 0 -1 0
vn 0 -1 0
vn 0 0 1
vn 0 0 1
vn 0 0 1
vn 0 0 1
vn 0 0 1
vn 0 0 1
vn 0 0 1
vn 0 0 1
vn 1 0 0
vn 1 0 0
vn 1 0 0
vn 1 0 0
vn 1 0 0
vn 1 0 0
vn 1 0 0
vn 1 0 0
vn 0 0 -1
vn 0 0 -1
vn 0 0 -1
vn 0 0 -1
vn 0 0 -1
vn 0 0 -1
vn 0 0 -1
vn 0 0 -1
vn -1 0 0
vn -1 0 0
vn -1 0 0
vn -1 0 0
vn -1 0 0
vn -1 0 0
vn -1 0 0
vn -1 0 0
vn 0 1 0
vn 0 1 0
vn 0 1 0
vn 0 1 0
vn 0 1 0
vn 0 1 0
vn 0 1 0
vn 0 1 0
f 5/5/5 1/1/1 8/8/8 2/2/2 7/7/7 4/4/4 6/6/6 3/3/3
f 13/13/13 9/9/9 15/15/15 10/10/10 16/16/16 12/12/12 14/14/14 11/11/11
f 21/21/21 17/17/17 23/23/23 18/18/18 24/24/24 20/20/20 22/22/22 19/19/19
f 29/29/29 25/25/25 31/31/31 26/26/26 32/32/32 28/28/28 30/30/30 27/27/27
f 37/37/37 33/33/33 39/39/39 34/34/34 40/40/40 36/36/36 38/38/38 35/35/35
f 48/48/48 41/41/41 45/45/45 43/43/43 46/46/46 44/44/44 47/47/47 42/42/42
usemtl Yeso (1)
v 2.0181670188903809 0.40000000596046448 -1.4365998506546021
v 2.0181670188903809 0.40000000596046448 -1.5165998935699463
v 2.0981669425964355 0.40000000596046448 -1.4365998506546021
v 2.0981669425964355 0.40000000596046448 -1.5165998935699463
v 2.0581669807434082 0.40000000596046448 -1.4365998506546021
v 2.0981669425964355 0.40000000596046448 -1.4765999317169189
v 2.0581669807434082 0.40000000596046448 -1.5165998935699463
v 2.0181670188903809 0.40000000596046448 -1.4765999317169189
v 2.0981669425964355 0.40000000596046448 -1.4365998506546021
v 2.0981669425964355 0.72879999876022339 -1.4365998506546021
v 2.0181670188903809 0.40000000596046448 -1.4365998506546021
v 2.0181670188903809 0.72879999876022339 -1.4365998506546021
v 2.0581669807434082 0.40000000596046448 -1.4365998506546021
v 2.0181670188903809 0.56440001726150513 -1.4365998506546021
v 2.0981669425964355 0.56440001726150513 -1.4365998506546021
v 2.0581669807434082 0.72879999876022339 -1.4365998506546021
v 2.0981669425964355 0.40000000596046448 -1.5165998935699463
v 2.0981669425964355 0.72879999876022339 -1.5165998935699463
v 2.0981669425964355 0.40000000596046448 -1.4365998506546021
v 2.0981669425964355 0.72879999876022339 -1.4365998506546021
v 2.0981669425964355 0.40000000596046448 -1.4765999317169189
v 2.0981669425964355 0.56440001726150513 -1.4365998506546021
v 2.0981669425964355 0.56440001726150513 -1.5165998935699463
v 2.0981669425964355 0.72879999876022339 -1.4765999317169189
v 2.0181670188903809 0.40000000596046448 -1.5165998935699463
v 2.0181670188903809 0.72879999876022339 -1.5165998935699463
v 2.0981669425964355 0.40000000596046448 -1.5165998935699463
v 2.0981669425964355 0.72879999876022339 -1.5165998935699463
v 2.0581669807434082 0.40000000596046448 -1.5165998935699463
v 2.0981669425964355 0.56440001726150513 -1.5165998935699463
v 2.0181670188903809 0.56440001726150513 -1.5165998935699463
v 2.0581669807434082 0.72879999876022339 -1.5165998935699463
v 2.0181670188903809 0.40000000596046448 -1.4365998506546021
v 2.0181670188903809 0.72879999876022339 -1.4365998506546021
v 2.0181670188903809 0.40000000596046448 -1.5165998935699463
v 2.0181670188903809 0.72879999876022339 -1.5165998935699463
v 2.0181670188903809 0.40000000596046448 -1.4765999317169189
v 2.0181670188903809 0.56440001726150513 -1.5165998935699463
v 2.0181670188903809 0.72879999876022339 -1.4765999317169189
v 2.0181670188903809 0.56440001726150513 -1.4365998506546021
v 2.0181670188903809 0.72879999876022339 -1.4365998506546021
v 2.0181670188903809 0.72879999876022339 -1.5165998935699463
v 2.0981669425964355 0.72879999876022339 -1.4365998506546021
v 2.0981669425964355 0.72879999876022339 -1.5165998935699463
v 2.0581669807434082 0.72879999876022339 -1.4365998506546021
v 2.0981669425964355 0.72879999876022339 -1.4765999317169189
v 2.0581669807434082 0.72879999876022339 -1.5165998935699463
v 2.0181670188903809 0.72879999876022339 -1.4765999317169189
vt 0 0.41100001335144043
vt 0 0.61100000143051147
vt 0.19853515923023224 0.41100001335144043
vt 0.19853515923023224 0.61100000143051147
vt 0.099267579615116119 0.41100001335144043
vt 0.19853515923023224 0.51099997758865356
vt 0.099267579615116119 0.61100000143051147
vt 0 0.51099997758865356
vt 0.40000000596046448 0
vt 0.40000000596046448 0.82053518295288086
vt 0.59853518009185791 0
vt 0.59853518009185791 0.82053518295288086
vt 0.499267578125 0
vt 0.59853518009185791 0.41026759147644043
vt 0.40000000596046448 0.41026759147644043
vt 0.499267578125 0.82053518295288086
vt 0.80000001192092896 0
vt 0.80000001192092896 0.82053518295288086
vt 0.99853515625 0
vt 0.99853515625 0.82053518295288086
vt 0.89926755428314209 0
vt 0.99853515625 0.41026759147644043
vt 0.80000001192092896 0.41026759147644043
vt 0.89926755428314209 0.82053518295288086
vt 0.20000000298023224 0
vt 0.20000000298023224 0.82053518295288086
vt 0.39853516221046448 0
vt 0.39853516221046448 0.82053518295288086
vt 0.29926759004592896 0
vt 0.39853516221046448 0.41026759147644043
vt 0.20000000298023224 0.41026759147644043
vt 0.29926759004592896 0.82053518295288086
vt 0.60000002384185791 0
vt 0.60000002384185791 0.82053518295288086
vt 0.79853516817092896 0
vt 0.79853516817092896 0.82053518295288086
vt 0.69926756620407104 0
vt 0.79853516817092896 0.41026759147644043
vt 0.69926756620407104 0.82053518295288086
vt 0.60000002384185791 0.41026759147644043
vt 0 0
vt 0 0.20000000298023224
vt 0.19853515923023224 0
vt 0.19853515923023224 0.20000000298023224
vt 0.099267579615116119 0
vt 0.19853515923023224 0.10000000149011612
vt 0.099267579615116119 0.20000000298023224
vt 0 0.10000000149011612
vn 0 -1 0
vn 0 -1 0
vn 0 -1 0
vn 0 -1 0
vn 0 -1 0
vn 0 -1 0
vn 0 -1 0
vn 0 -1 0
vn 0 0 1
vn 0 0 1
vn 0 0 1
vn 0 0 1
vn 0 0 1
vn 0 0 1
vn 0 0 1
vn 0 0 1
vn 1 0 0
vn 1 0 0
vn 1 0 0
vn 1 0 0
vn 1 0 0
vn 1 0 0
vn 1 0 0
vn 1 0 0
vn 0 0 -1
vn 0 0 -1
vn 0 0 -1
vn 0 0 -1
vn 0 0 -1
vn 0 0 -1
vn 0 0 -1
vn 0 0 -1
vn -1 0 0
vn -1 0 0
vn -1 0 0
vn -1 0 0
vn -1 0 0
vn -1 0 0
vn -1 0 0
vn -1 0 0
vn 0 1 0
vn 0 1 0
vn 0 1 0
vn 0 1 0
vn 0 1 0
vn 0 1 0
vn 0 1 0
vn 0 1 0
f 53/53/53 49/49/49 56/56/56 50/50/50 55/55/55 52/52/52 54/54/54 51/51/51
f 61/61/61 57/57/57 63/63/63 58/58/58 64/64/64 60/60/60 62/62/62 59/59/59
f 69/69/69 65/65/65 71/71/71 66/66/66 72/72/72 68/68/68 70/70/70 67/67/67
f 77/77/77 73/73/73 79/79/79 74/74/74 80/80/80 76/76/76 78/78/78 75/75/75
f 85/85/85 81/81/81 88/88/88 82/82/82 87/87/87 84/84/84 86/86/86 83/83/83
f 96/96/96 89/89/89 93/93/93 91/91/91 94/94/94 92/92/92 95/95/95 90/90/90
usemtl Yeso (1)
v 2.0181670188903809 0.40000000596046448 -1.9365998506546021
v 2.0181670188903809 0.40000000596046448 -2.0165998935699463
v 2.0981669425964355 0.40000000596046448 -1.9365998506546021
v 2.0981669425964355 0.40000000596046448 -2.0165998935699463
v 2.0581669807434082 0.40000000596046448 -1.9365998506546021
v 2.0981669425964355 0.40000000596046448 -1.9765999317169189
v 2.0581669807434082 0.40000000596046448 -2.0165998935699463
v 2.0181670188903809 0.40000000596046448 -1.9765999317169189
v 2.0981669425964355 0.40000000596046448 -1.9365998506546021
v 2.0981669425964355 0.72879999876022339 -1.9365998506546021
v 2.0181670188903809 0.40000000596046448 -1.9365998506546021
v 2.0181670188903809 0.72879999876022339 -1.9365998506546021
v 2.0581669807434082 0.40000000596046448 -1.9365998506546021
v 2.0181670188903809 0.56440001726150513 -1.9365998506546021
v 2.0981669425964355 0.56440001726150513 -1.9365998506546021
v 2.0581669807434082 0.72879999876022339 -1.9365998506546021
v 2.0981669425964355 0.40000000596046448 -2.0165998935699463
v 2.0981669425964355 0.72879999876022339 -2.0165998935699463
v 2.0981669425964355 0.40000000596046448 -1.9365998506546021
v 2.0981669425964355 0.72879999876022339 -1.9365998506546021
v 2.0981669425964355 0.40000000596046448 -1.9765999317169189
v 2.0981669425964355 0.56440001726150513 -1.9365998506546021
v 2.0981669425964355 0.72879999876022339 -1.9765999317169189
v 2.0981669425964355 0.56440001726150513 -2.0165998935699463
v 2.0181670188903809 0.40000000596046448 -2.0165998935699463
v 2.0181670188903809 0.72879999876022339 -2.0165998935699463
v 2.0981669425964355 0.40000000596046448 -2.0165998935699463
v 2.0981669425964355 0.72879999876022339 -2.0165998935699463
v 2.0581669807434082 0.40000000596046448 -2.0165998935699463
v 2.0981669425964355 0.56440001726150513 -2.0165998935699463
v 2.0181670188903809 0.56440001726150513 -2.0165998935699463
v 2.0581669807434082 0.72879999876022339 -2.0165998935699463
v 2.0181670188903809 0.40000000596046448 -1.9365998506546021
v 2.0181670188903809 0.72879999876022339 -1.9365998506546021
v 2.0181670188903809 0.40000000596046448 -2.0165998935699463
v 2.0181670188903809 0.72879999876022339 -2.0165998935699463
v 2.0181670188903809 0.40000000596046448 -1.9765999317169189
v 2.0181670188903809 0.56440001726150513 -2.0165998935699463
v 2.0181670188903809 0.72879999876022339 -1.9765999317169189
v 2.0181670188903809 0.56440001726150513 -1.9365998506546021
v 2.0181670188903809 0.72879999876022339 -1.9365998506546021
v 2.0181670188903809 0.72879999876022339 -2.0165998935699463
v 2.0981669425964355 0.72879999876022339 -1.9365998506546021
v 2.0981669425964355 0.72879999876022339 -2.0165998935699463
v 2.0581669807434082 0.72879999876022339 -1.9365998506546021
v 2.0981669425964355 0.72879999876022339 -1.9765999317169189
v 2.0581669807434082 0.72879999876022339 -2.0165998935699463
v 2.0181670188903809 0.72879999876022339 -1.9765999317169189
vt 0 0.41100001335144043
vt 0 0.61100000143051147
vt 0.19853515923023224 0.41100001335144043
vt 0.19853515923023224 0.61100000143051147
vt 0.099267579615116119 0.41100001335144043
vt 0.19853515923023224 0.51099997758865356
vt 0.099267579615116119 0.61100000143051147
vt 0 0.51099997758865356
vt 0.40000000596046448 0
vt 0.40000000596046448 0.82053518295288086
vt 0.59853518009185791 0
vt 0.59853518009185791 0.82053518295288086
vt 0.499267578125 0
vt 0.59853518009185791 0.41026759147644043
vt 0.40000000596046448 0.41026759147644043
vt 0.499267578125 0.82053518295288086
vt 0.80000001192092896 0
vt 0.80000001192092896 0.82053518295288086
vt 0.99853515625 0
vt 0.99853515625 0.82053518295288086
vt 0.89926755428314209 0
vt 0.99853515625 0.41026759147644043
vt 0.89926755428314209 0.82053518295288086
vt 0.80000001192092896 0.41026759147644043
vt 0.20000000298023224 0
vt 0.20000000298023224 0.82053518295288086
vt 0.39853516221046448 0
vt 0.39853516221046448 0.82053518295288086
vt 0.29926759004592896 0
vt 0.39853516221046448 0.41026759147644043
vt 0.20000000298023224 0.41026759147644043
vt 0.29926759004592896 0.82053518295288086
vt 0.60000002384185791 0
vt 0.60000002384185791 0.82053518295288086
vt 0.79853516817092896 0
vt 0.79853516817092896 0.82053518295288086
vt 0.69926756620407104 0
vt 0.79853516817092896 0.41026759147644043
vt 0.69926756620407104 0.82053518295288086
vt 0.60000002384185791 0.41026759147644043
vt 0 0
vt 0 0.20000000298023224
vt 0.19853515923023224 0
vt 0.19853515923023224 0.20000000298023224
vt 0.099267579615116119 0
vt 0.19853515923023224 0.10000000149011612
vt 0.099267579615116119 0.20000000298023224
vt 0 0.10000000149011612
vn 0 -1 0
vn 0 -1 0
vn 0 -1 0
vn 0 -1 0
vn 0 -1 0
vn 0 -1 0
vn 0 -1 0
vn 0 -1 0
vn 0 0 1
vn 0 0 1
vn 0 0 1
vn 0 0 1
vn 0 0 1
vn 0 0 1
vn 0 0 1
vn 0 0 1
vn 1 0 0
vn 1 0 0
vn 1 0 0
vn 1 0 0
vn 1 0 0
vn 1 0 0
vn 1 0 0
vn 1 0 0
vn 0 0 -1
vn 0 0 -1
vn 0 0 -1
vn 0 0 -1
vn 0 0 -1
vn 0 0 -1
vn 0 0 -1
vn 0 0 -1
vn -1 0 0
vn -1 0 0
vn -1 0 0
vn -1 0 0
vn -1 0 0
vn -1 0 0
vn -1 0 0
vn -1 0 0
vn 0 1 0
vn 0 1 0
vn 0 1 0
vn 0 1 0
vn 0 1 0
vn 0 1 0
vn 0 1 0
vn 0 1 0
f 101/101/101 97/97/97 104/104/104 98/98/98 103/103/103 100/100/100 102/102/102 99/99/99
f 109/109/109 105/105/105 111/111/111 106/106/106 112/112/112 108/108/108 110/110/110 107/107/107
f 117/117/117 113/113/113 120/120/120 114/114/114 119/119/119 116/116/116 118/118/118 115/115/115
f 125/125/125 121/121/121 127/127/127 122/122/122 128/128/128 124/124/124 126/126/126 123/123/123
f 133/133/133 129/129/129 136/136/136 130/130/130 135/135/135 132/132/132 134/134/134 131/131/131
f 144/144/144 137/137/137 141/141/141 139/139/139 142/142/142 140/140/140 143/143/143 138/138/138
